<svg width="16" height="16" viewBox="0 0 16 16" fill="none" xmlns="http://www.w3.org/2000/svg">
<rect width="16" height="16" fill="white"/>
<rect x="1" y="1" width="14" height="14" rx="3" fill="black"/>
<path d="M7.25 3H6.125C5.82663 3 5.54048 3.11288 5.3295 3.31381C5.11853 3.51475 5 3.78727 5 4.07143V11.9286C5 12.2127 5.11853 12.4853 5.3295 12.6862C5.54048 12.8871 5.82663 13 6.125 13H9.875C10.1734 13 10.4595 12.8871 10.6705 12.6862C10.8815 12.4853 11 12.2127 11 11.9286V4.07143C11 3.78727 10.8815 3.51475 10.6705 3.31381C10.4595 3.11288 10.1734 3 9.875 3H8.75M7.25 3V3.71429H8.75V3M7.25 3H8.75M7.25 11.5H8.75" stroke="white" stroke-width="0.5" stroke-linecap="round" stroke-linejoin="round"/>
</svg>
