<svg width="512" height="512" viewBox="0 0 512 512" fill="none" xmlns="http://www.w3.org/2000/svg">
<rect width="512" height="512" fill="white"/>
<rect x="32" y="32" width="448" height="448" rx="96" fill="black"/>
<path d="M232 96H196C186.452 96 177.296 99.612 170.544 106.043C163.793 112.473 160 121.193 160 130.286V381.714C160 390.807 163.793 399.527 170.544 405.957C177.296 412.388 186.452 416 196 416H316C325.548 416 334.704 412.388 341.456 405.957C348.207 399.527 352 390.807 352 381.714V130.286C352 121.193 348.207 112.473 341.456 106.043C334.704 99.612 325.548 96 316 96H280M232 96V118.857H280V96M232 96H280M232 368H280" stroke="white" stroke-width="16" stroke-linecap="round" stroke-linejoin="round"/>
</svg>
